<?xml version="1.0" encoding="utf-8"?>
<!-- Svg Vector Icons : http://www.onlinewebfonts.com/icon -->
<!DOCTYPE svg PUBLIC "-//W3C//DTD SVG 1.1//EN" "http://www.w3.org/Graphics/SVG/1.1/DTD/svg11.dtd">
<svg version="1.1" xmlns="http://www.w3.org/2000/svg" xmlns:xlink="http://www.w3.org/1999/xlink" x="0px" y="0px" viewBox="0 0 1000 1000" enable-background="new 0 0 1000 1000" xml:space="preserve">
<metadata> Svg Vector Icons : http://www.onlinewebfonts.com/icon </metadata>
<g><g><path d="M352.8,548.3c0-39.9,14.6-74.4,43.7-103.5c29.1-29.1,63.6-43.7,103.5-43.7c39.9,0,74.4,14.6,103.5,43.7c29.1,29.1,43.7,63.6,43.7,103.5c0,39.9-14.6,74.4-43.7,103.5c-29.1,29.1-63.6,43.7-103.5,43.7c-39.9,0-74.4-14.6-103.5-43.7C367.3,622.7,352.8,588.2,352.8,548.3z M893.4,872.7L704.7,684c27.6-42.9,41.4-88.2,41.4-135.7c0-67.5-24.2-125-72.5-172.5c-48.3-47.5-106.2-71.3-173.7-71.3s-125.4,23.8-173.7,71.3s-72.5,105.1-72.5,172.5c0,67.5,24.2,125.4,72.5,173.7c48.3,48.3,106.2,72.5,173.7,72.5c47.5,0,92.8-13.8,135.7-41.4L852,971.6c-16.9,12.3-36,18.4-57.5,18.4H205.5c-26.1,0-49.1-9.6-69-28.8c-19.9-19.2-29.9-41.8-29.9-67.9l2.3-786.8c0-26.1,9.6-48.7,28.8-67.9C156.8,19.6,179.5,10,205.5,10h393.4l294.5,294.5V872.7z"/></g></g>
</svg>